<svg height="157" width="624" xmlns="http://www.w3.org/2000/svg"><mask id="a" fill="#fff"><path d="M0 156H620.484V.4H0z" fill-rule="evenodd"/></mask><mask id="b" fill="#fff"><path d="M1.635.913h7.743v11.555H1.635z" fill-rule="evenodd"/></mask><mask id="c" fill="#fff"><path d="M.634.915h9.965v11.553H.634z" fill-rule="evenodd"/></mask><mask id="d" fill="#fff"><path d="M1.813.913h11.05v11.555H1.813z" fill-rule="evenodd"/></mask><g fill="none" fill-rule="evenodd"><path d="M438.884 32.8c-.4.4-1.2 1.6-1.2 3.6v10.8c0 .8-.4 1.6-.8 2.4-.4.4-2 2-2.4 2h1.2c.4-.4 3.6-3.2 4-3.6s1.6-1.6 1.6-3.6V34c0-1.6.8-2.4 1.2-2.8s1.6-1.6 2-1.6h-1.2c-.4-.4-4 2.8-4.4 3.2M430.884 72.4l4 3.6h2.8c2.8 0 5.2-1.2 6.8-2.8s2.4-4 2.4-6v-5.6c0-2-1.2-3.2-1.6-3.2l-1.2-1.2v4.4l1.6 1.6c1.2 1.2 1.2 3.6-2.4 7.2-.8.8-2.4 2.4-5.2 2.4h-7.2z" fill="#fff"/><path d="M442.083 49.2c-.4.4-.8 1.6-.8 2.8v2h2c.8 0 1.6-.8 2.4-1.2v-2s.4.8 1.2 1.2c.8-.8 2.4-2.8 4-2.8 2.8 0 2 3.6.8 4.4l-2.4 2.4c-1.2 1.2-3.6.8-3.6-2.4 0 0-2.4 2.4-2.8 2.4-.396.4-1.6 1.6-1.6 1.6v5.6c0 2.8-.796 3.6-1.6 4.4-.4.4-3.196 2.8-4 3.6h-1.196s2-1.6 2.396-2c.4-.4.8-1.2.8-2.8v-8.8h-14c-4.8 0-6-5.2-6-6.8v-5.2c0-.8-.4-2.4-1.6-2.8h1.2s1.204.4 1.204 3.6v4c0 1.6 1.196 3.6 3.196 3.6h15.6c0-.4.4-2 1.204-2.8.396-.4 4-3.6 4-4h1.196c.4 0-1.196 1.6-1.6 2m4.8 3.2s1.2 1.2 1.604 1.6c1.596 1.2 2 0 1.196-1.6 0-.4-1.196-1.2-2.8 0" fill="#fff"/><path d="M430.485 62.4c0 .8-2.404 2.8-2.404 2.8 0-.8-.8-1.6-2.8-3.6l2.8-2.8c1.604 2.4 2.404 2.8 2.404 3.6M434.884 32c.4.4 1.6 2 1.2 2.8s-1.6 1.6-1.6 1.6c0-.4-.8-1.2-.8-1.2V38c0 1.2-.4 1.6-.4 1.6s2 2 2 4.8v2.8c0 .4 0 .8-.4 1.6 0 .4-2.4 2-2.4 2.4-.4.4-1.2.8-1.6.8h-7.2c-1.2 0-2.4-.8-2.4-2v-2.8c.4.4.8.8 1.6.8s1.6-.4 1.6-.8c.4-.4 5.6-6 5.6-6s-2.4-2.4-4-3.6c-.8-.4-2 0-2 .8-.4 2.4 0 5.6 0 5.6l-2-2c-.8-.8-.8-2.8 0-3.6 0 0 1.6-2 3.6-2h2.8c2 0 4 2 4 2s.4-.4.4-.8V34c-1.6-1.6-1.6-3.2-.8-3.6l1.6-1.6s-.4 1.6 1.2 3.2m-9.2 14.8c-.8.8-.8.8-1.6 1.2h8.4c2 0 1.6-1.2 1.2-2-.8-1.6-3.2-4-3.2-4z" fill="#fff"/><path d="M416.083 54.4h-1.2s1.604.8 1.604 2.8V64c0 4.4 3.596 8.4 8 8.4h3.596c2 0 2.8-.4 4.404-1.6.396-.4 1.196-1.2 1.196-1.2.804-.8 1.6-1.6 1.6-3.6v-2c0-2-1.2-2.8-1.6-3.2l-1.196-1.2V64l1.196 1.2c2 1.6.4 4-1.196 4h-8c-3.204 0-6.804-2.4-6.804-6.8v-3.6c-.4-4.4-1.6-4.4-1.6-4.4" fill="#fff"/><path d="M424.884 62.4c0 .8-2.4 2.8-2.4 2.8 0-.8-.8-1.6-2.4-3.6l2.8-2.8c1.2 2.4 2 2.8 2 3.6M421.282 91.201v-7.6c0-3.2-2.4-3.6-4.4-3.6-2.396 0-3.196 1.996-3.6 2.796-.4-1.996-2.4-2.796-4-2.796-2.796 0-3.596 2.796-3.596 2.796s0-2.796-2.404-2.796h-2.4s1.2.4 1.2 2.796v8.804c0 2.8 1.2 2.8 1.2 2.8h4s-1.596-1.2-1.596-2.8v-7.604c0-.396.8-1.596 2.396-1.596.8 0 2 .8 2 2v7.2c0 2.8 1.2 2.8 1.2 2.8h4s-1.596-.8-1.596-2.8v-7.604c0-.396.8-1.596 2-1.596 1.196 0 2 .8 2 2v7.2c0 2.8 1.196 2.8 1.196 2.8h4s-1.6-1.604-1.6-3.2M427.684 91.201c0 2 1.596 2.796 1.596 2.796h-4s-1.196 0-1.196-2.796v-8.8c0-2.4-1.2-2.8-1.2-2.8h2.396c.804 0 2.404 0 2.404 3.196zM439.684 80.8s-.404-1.2-2-1.2c-2.404 0-2.8 2.8-2.8 2.8 0-2.4-.8-2.8-2.4-2.8h-2.4s1.196.4 1.196 2.8v8.8c0 2.797 1.204 2.797 1.204 2.797h4s-1.6-1.196-1.6-2.796v-7.204c0-.796.396-1.196.8-1.596 1.2-.8 2.8-.404 4 .4zM457.282 81.2c1.204 0 2.404.4 2.404.4v-2h-3.2v-3.2s-.8 1.6-2.404 2.8c-1.2.8-3.2 2-3.2 2h2.4v10c0 2.8 1.204 2.8 1.204 2.8h3.596s-1.596-.8-1.596-2.8v-10zM468.884 85.6c-2 2.4-4 2-5.2 3.6 0 0 .4 2.4 2 2.8.4.4 2.8 1.2 4.4-1.6v2.4s-.8 1.2-4 1.2c-3.6 0-6.4-2.8-6.4-6.8s2-7.6 6-7.6 6 2.8 3.2 6m-2.4-1.2c.8-1.2 1.2-4-1.2-4s-2 6.8-2 6.8c.8-.8 2-.8 3.2-2.8M426.083 78.4c1.2 0 1.6-.8 1.6-1.6s-.8-1.6-1.6-1.6c-1.2 0-1.596.8-1.596 1.6s.396 1.6 1.596 1.6M477.282 89.998c0 1.204-.796 2.404-2.796 2.404s-2.8-2-2.8-2v2.396s1.596.8 3.596.8c2.8 0 5.204-2 5.204-4.8 0-.8-.404-2-.8-2.396-.804-1.2-2.404-2-3.604-2.804-1.596-.8-1.596-3.196 1.2-2.796 2 0 2.8 1.996 2.8 1.996v-2.396s-1.596-1.204-3.596-1.204c-2.404 0-4.404 1.604-4.404 3.6 0 1.604.8 2.8 2 4 .404.404 1.2.8 2 1.2.8.404 1.2 1.204 1.2 2M444.083 92.4c-1.2 0-2-.8-2-2 0-3.2 2.8-4 3.6-4.8v6s-.4.8-1.6.8m2-9.6c0 1.196-1.2 2-2 2.4-2.4 1.2-5.2 2-5.2 5.2 0 2.4 1.604 3.596 4 3.596 1.604 0 2.8-.796 2.8-1.596.4 1.596 1.2 1.596 1.2 1.596h3.604s-1.604-.796-1.604-2.796v-8c0-2-2-3.6-4.396-3.6-2 0-3.604 1.2-3.604 1.2v2.4s.8-2 2.8-2 2.4.796 2.4 1.6M529.684 74.8v3.6l4-3.6z" fill="#fff"/><path d="M526.083 74.8h-6.8c-4.796 0-9.2 3.6-9.2 9.6 0 5.597 4.404 9.597 9.6 9.597 5.6 0 9.6-4.796 9.6-10V78.4h-3.2v5.596c0 3.204-2 6.804-6.4 6.804-3.6 0-6.4-2.804-6.4-6.4 0-2.8 2-6.4 6.4-6.4h5.6l3.6-3.2v-6h-3.2v6zm18-.8c-3.2 0-6 1.6-7.2 3.6v-2.8h-3.2v18.8h3.6V81.998c0-3.196 3.6-4.796 6-4.796 4 0 4.8 2.4 4.8 5.6v10.8h3.6V82.4c-.4-6.8-4-8.4-7.6-8.4zm36.404 16.8c-1.604 0-2-1.2-2-2.803V77.6h5.596v-3.2h-5.596v-6h-3.604v20c0 2 .8 5.2 5.2 5.2 1.6 0 3.2-.4 4.404-.8l-.804-3.2c-1.6.8-2.8 1.2-3.196 1.2zm22.796-10.4c0-2.8-2.4-6-8.796-6-4 0-7.604 2-7.604 2l1.604 2.4s2.396-1.6 6-1.6c5.196 0 5.596 2.4 5.596 3.2v.4s-4 .4-6 .4c-3.2.4-5.2 1.2-6.4 2.4-1.196 1.2-1.6 2.8-1.6 4 0 4 3.6 6 8 6 3.2 0 6.404-1.603 6.404-1.603V93.2h3.196V80.4zm-9.6 10.8c-1.196 0-4.4-.4-4.4-3.6 0-2.4 2.8-3.2 4.8-3.2 1.6 0 6-.403 6-.403V88.8c-1.2 1.6-4 2.4-6.4 2.4zm-22-10.8c0-3.2-2.8-6-8.8-6-3.6 0-7.6 2-7.6 2l1.6 2.4s2.4-1.6 6-1.6c5.2 0 5.604 2.4 5.604 3.2v.4s-4 .4-6 .4c-3.604.4-8.404 2-8.404 6.4 0 4 3.6 6 8 6 3.2 0 6.404-1.603 6.404-1.603V93.2h3.196zm-10 10.8c-1.196 0-4.4-.4-4.4-3.6 0-2.4 2.8-3.2 4.8-3.2 1.6 0 6-.403 6-.403V88.8c-1.2 1.6-3.596 2.4-6.4 2.4zM397.282 91.998h-4.4c-1.196 0-1.196-1.2-1.196-2v-6h2c1.196 0 2.8 0 4 .8 0 0-1.2-2.396-4-2.396h-2v-2s0-1.6-.404-2h2.8c2.404 0 4.404 0 6.404 1.196 0 0-.404-3.196-5.204-3.196h-9.2s1.604 1.196 1.604 4v11.196c0 2.804 1.196 2.804 1.196 2.804h9.2c2 0 2.8-1.2 2.8-2.404v-1.2c-.396 0-1.196 1.2-3.6 1.2" fill="#fff"/><path d="M315.684 156h3.2V.4h-3.2z" fill="#a0a0a0" mask="url(#a)" transform="translate(0 -.4)"/><g fill="#cf3738"><path d="M165.682 52.203v-9.216l104.652-19.552zM26.352 76.922h-2.584c-9.84 0-14.72 2.004-14.72 6.836 0 3.632 4.172 5.092 7.712 5.092a14.314 14.314 0 009.468-3.008zm0 18.468v-2.672a18.554 18.554 0 01-11.844 3.836C4.964 96.554.336 90.842.336 83.842c0-8.928 8.924-13.84 20.548-13.84h5.636c0-4.548-1.924-6.172-7.548-6.172-3.98-.156-7.952.56-11.636 2.08l-3-6.544a30.032 30.032 0 0113.636-2.916c10.548 0 17.004 3.08 17.004 11.26v27.632zM56.036 96.476L37.86 57.54h9.544L55.74 75.8c.264.588.48 1.208.632 1.836.148-.66.356-1.3.62-1.924l8.34-18.172h9.176zM80.676 95.724h8.628V57.908h-8.628zM122.114 77.258h-2.46c-9.836 0-14.712 2.008-14.712 6.836 0 3.632 4.168 5.084 7.708 5.084 3.412.16 6.772-.896 9.464-3zm0 18.468v-2.704a18.552 18.552 0 01-11.832 3.828c-9.56 0-14.18-5.708-14.18-12.708 0-8.932 8.92-13.84 20.552-13.84h5.628c0-4.548-1.916-6.18-7.548-6.18a27.647 27.647 0 00-11.628 2.092l-3.004-6.468a30.19 30.19 0 0113.628-2.916c10.552 0 17.012 3.084 17.012 11.256v27.64zM155.971 96.273c-8.636 0-14.096-1.72-14.096-12.844V65.913h-5.208V57.91h5.168V43.861h8.672V57.91h6.664v8.004h-6.664v17.268c0 4.172 1.46 4.912 5.376 4.912h1.544v8.344h-1.456M165.684 95.724h8.632V57.908h-8.632zM200.249 64.867c-5.848.132-10.484 4.976-10.356 10.824.004.296.024.596.056.892 0 7.54 3.836 12.26 10.176 12.26 7.712 0 10.92-5.256 10.92-12.088.74-5.804-3.364-11.104-9.16-11.844a10.3 10.3 0 00-1.68-.08m-.08 32.06c-10.384.272-19.028-7.9-19.312-18.28-.02-.664-.004-1.324.048-1.984-.168-10.728 8.404-19.56 19.136-19.72 10.728-.164 19.56 8.408 19.724 19.144.712 10.768-7.448 20.08-18.224 20.8-.42.024-.832.04-1.248.04M250.067 95.726V72.714c0-4.628-2.292-7.92-7.168-7.92a9.41 9.41 0 00-8.892 9.916c.008.216.028.428.052.628v20.388h-8.672V57.91h8.632v4.544a12.498 12.498 0 0110.712-5.628c7.188-.516 13.436 4.892 13.952 12.084.048.724.04 1.452-.024 2.18v24.636zM13.928 30.187a6.076 6.076 0 00-1.128-1.5 5.248 5.248 0 00-1.668-1.04 6.392 6.392 0 00-6.168.956 5.75 5.75 0 00-1.836 3.336h11.424a5.988 5.988 0 00-.624-1.752zM2.924 34.36c.02.908.184 1.812.5 2.664.272.78.688 1.508 1.248 2.132a5.97 5.97 0 002.004 1.416 6.336 6.336 0 002.664.536 8.297 8.297 0 003.46-.664c.98-.464 1.884-1.08 2.668-1.832l1.876 1.832a13.28 13.28 0 01-3.248 2.332 10.309 10.309 0 01-4.88 1.044 9.501 9.501 0 01-3.88-.748 8.392 8.392 0 01-2.876-2.04A9.066 9.066 0 01.624 37.94 11.692 11.692 0 010 34.063c0-1.2.208-2.408.624-3.544.388-1.1.98-2.116 1.752-3.004a8.385 8.385 0 012.836-2.04 9.102 9.102 0 013.752-.748 8.338 8.338 0 013.712.792 7.975 7.975 0 012.708 2.128 8.9 8.9 0 011.672 3.084c.368 1.204.564 2.452.58 3.708zM44.112 43.406V31.682a4.506 4.506 0 00-.956-3.08 3.346 3.346 0 00-2.676-1.128 5.353 5.353 0 00-2.004.42 4.937 4.937 0 00-1.62 1.08 5.223 5.223 0 00-1.084 1.58 4.783 4.783 0 00-.416 1.924v10.928h-2.88V31.682a4.694 4.694 0 00-.912-3.08 3.467 3.467 0 00-2.792-1.128 4.92 4.92 0 00-2.004.42 4.848 4.848 0 00-1.628 1.08 5.485 5.485 0 00-1.084 1.632 4.74 4.74 0 00-.42 1.912v10.888h-2.872V25.31h3.004v2.456a6.143 6.143 0 012.288-2.124 7.122 7.122 0 016.8 0c.88.58 1.58 1.4 2 2.372a7.165 7.165 0 012.752-2.372 7.436 7.436 0 013.456-.876 6.804 6.804 0 012.756.5 4.93 4.93 0 011.916 1.376 5.676 5.676 0 011.084 2.04c.24.828.348 1.684.332 2.544v12.092zM51.028 43.404h2.88V25.308h-2.88zM68.083 28.515a4.248 4.248 0 00-2.624-1 3.268 3.268 0 00-1.668.456 4.869 4.869 0 00-1.376 1.26 6.114 6.114 0 00-.92 1.832 7.119 7.119 0 00-.328 2.208v10.14h-2.88v-18.1h3v2.5a6.422 6.422 0 012.004-2.168 4.884 4.884 0 012.788-.832 4.851 4.851 0 013.552 1.204zM82.55 34.062h-2.46a13.013 13.013 0 00-5.504.916 3.214 3.214 0 00-1.872 3.088 2.663 2.663 0 001.248 2.42 5.31 5.31 0 002.916.792 7.767 7.767 0 003.088-.584 12.06 12.06 0 002.584-1.54zm0 9.348v-1.72a9.675 9.675 0 01-2.752 1.628 9.15 9.15 0 01-3.464.628 6.957 6.957 0 01-4.832-1.588 5.46 5.46 0 01-1.792-4.172 5.429 5.429 0 012.624-4.832 9.971 9.971 0 013.044-1.208c1.3-.296 2.624-.432 3.964-.412h3.248v-.8a2.937 2.937 0 00-1.208-2.828 6.47 6.47 0 00-3.208-.668 11.592 11.592 0 00-5.504 1.168l-1.044-2.212a9.37 9.37 0 012.96-1.128 16.346 16.346 0 013.38-.5 9.427 9.427 0 015.624 1.376 4.764 4.764 0 011.88 4.172v13.172zM96.1 43.488h-.792a6.22 6.22 0 01-3.836-1.084 4.453 4.453 0 01-1.416-3.792V28.016h-2.672v-2.704h2.672V20.06h2.876v5.252h3.416v2.704h-3.416v10.508c0 1.472.832 2.212 2.5 2.212h.96v2.712zM112.155 30.187a6.161 6.161 0 00-1.124-1.5 5.274 5.274 0 00-1.664-1.04 6.414 6.414 0 00-6.18.956 5.79 5.79 0 00-1.832 3.336h11.424a6.354 6.354 0 00-.624-1.752zm-11.012 4.172c.02.908.188 1.812.5 2.664.272.78.7 1.508 1.252 2.132a5.953 5.953 0 002 1.416c.84.368 1.748.552 2.672.536a8.303 8.303 0 003.456-.664 10.24 10.24 0 002.672-1.832l1.876 1.832a13.28 13.28 0 01-3.248 2.332 10.34 10.34 0 01-4.888 1.044 9.52 9.52 0 01-3.876-.748 8.354 8.354 0 01-2.876-2.04 8.955 8.955 0 01-1.832-3.092 11.494 11.494 0 01-.628-3.876 10.173 10.173 0 01.588-3.456 9.123 9.123 0 011.788-3.004 8.435 8.435 0 012.836-2.044 9.18 9.18 0 013.752-.748 8.272 8.272 0 013.712.792 7.926 7.926 0 012.708 2.124 8.879 8.879 0 011.668 3.088c.372 1.2.572 2.448.588 3.708zM129.997 40.691a5.504 5.504 0 01-1.332 1.668c-.6.492-1.272.876-2 1.12a7.206 7.206 0 01-2.38.424c-1.176 0-2.352-.2-3.46-.588a9.852 9.852 0 01-2.916-1.54l1.54-2.208c.7.56 1.488.992 2.336 1.292.76.28 1.564.436 2.372.452.432.068.864.068 1.292 0a3.226 3.226 0 001.128-.536 3.03 3.03 0 00.796-.832c.192-.328.292-.708.292-1.088a2.434 2.434 0 00-.292-1.248 3.268 3.268 0 00-.88-.92 6.162 6.162 0 00-1.292-.664l-1.54-.544-1.96-1.124a7.538 7.538 0 01-1.748-1.048 4.968 4.968 0 01-1.256-1.504 4.363 4.363 0 01-.5-2.164 4.175 4.175 0 01.5-2.04 4.508 4.508 0 011.332-1.544 6.948 6.948 0 011.88-.956 6.788 6.788 0 012.208-.336c1.004.008 2 .152 2.956.416a8.176 8.176 0 012.84 1.42l-1.336 2.208a7.724 7.724 0 00-2.208-1.124 7.387 7.387 0 00-2.288-.332c-.72 0-1.424.184-2.048.544a1.802 1.802 0 00-.952 1.744c-.028.74.356 1.424.996 1.796a13.25 13.25 0 002.708 1.212l2.004.828c.656.3 1.268.676 1.832 1.132a5.105 5.105 0 011.336 1.624c.352.724.524 1.528.496 2.332a4.684 4.684 0 01-.496 2.128M122.866 128.336v-2.68a6.236 6.236 0 01-2.336 2.336 6.797 6.797 0 01-3.456.876 6.725 6.725 0 01-5.052-1.836 6.788 6.788 0 01-1.74-4.96V109.86h2.948v11.796a4.922 4.922 0 001.136 3.252 4.115 4.115 0 003.244 1.328 4.81 4.81 0 002.212-.492 5.615 5.615 0 001.668-1.336 6.288 6.288 0 001.044-1.836c.236-.628.36-1.284.376-1.964V109.86h2.956v18.508zM142.922 128.336v-11.772a4.824 4.824 0 00-1.088-3.244 4.168 4.168 0 00-3.252-1.248 4.74 4.74 0 00-2.292.5 5.488 5.488 0 00-1.664 1.336 5.612 5.612 0 00-1.004 1.78 6.123 6.123 0 00-.332 1.968v10.672h-2.96V109.86h2.96v2.664a6.22 6.22 0 012.376-2.376 6.64 6.64 0 013.376-.868 6.779 6.779 0 015.004 1.828 6.64 6.64 0 011.876 4.924v12.304zM149.968 128.368h2.96V109.86h-2.96zM164.596 129.156l-8.716-19.296h3.216l5.5 12.584 5.588-12.584h3.088zM188.448 115.03a6.135 6.135 0 00-1.168-1.547 5.393 5.393 0 00-1.704-1.084 6.57 6.57 0 00-6.296 1.172 5.859 5.859 0 00-1.876 3.412h11.716a6.802 6.802 0 00-.628-1.788zm-11.256 4.165c.02.936.188 1.868.5 2.752a6.536 6.536 0 001.292 2.168 6.22 6.22 0 002.048 1.464 6.696 6.696 0 002.748.536 8.306 8.306 0 003.544-.664 10.584 10.584 0 002.756-1.88l1.912 1.88a13.51 13.51 0 01-3.296 2.376 10.476 10.476 0 01-5 1.04 9.675 9.675 0 01-4.164-.796 8.533 8.533 0 01-2.756-2 9.316 9.316 0 01-1.876-3.156 11.872 11.872 0 01-.668-4.18c-.004-1.236.208-2.46.628-3.62a9.386 9.386 0 011.832-3.052 8.354 8.354 0 012.92-2.124 9.082 9.082 0 013.836-.54 8.706 8.706 0 013.796.788 8.286 8.286 0 012.748 2.172 9.117 9.117 0 011.712 3.164c.388 1.22.592 2.508.628 3.804zM205.46 113.11a4.155 4.155 0 00-2.672-1.04 3.244 3.244 0 00-1.708.46 4.952 4.952 0 00-1.412 1.291 6.402 6.402 0 00-.964 1.872 7.452 7.452 0 00-.332 2.26v10.392h-2.96v-18.48h2.96v2.54c.5-.88 1.196-1.64 2.048-2.212a4.944 4.944 0 012.872-.864 4.873 4.873 0 013.668 1.42zM220.721 125.578a5.883 5.883 0 01-1.376 1.72c-.612.484-1.3.864-2.04 1.116a7.616 7.616 0 01-2.468.42c-1.204.008-2.4-.192-3.54-.592a9.833 9.833 0 01-2.96-1.58l1.588-2.248c.72.58 1.54 1.032 2.412 1.336.788.28 1.624.444 2.464.452.44.064.892.064 1.328 0a3.269 3.269 0 001.128-.54c.316-.216.588-.504.796-.828.204-.34.3-.732.288-1.132.012-.46-.1-.896-.332-1.288a3.087 3.087 0 00-.876-.916 5.806 5.806 0 00-1.328-.708l-1.588-.588-1.964-.828a8.298 8.298 0 01-1.788-1.084 5.209 5.209 0 01-1.292-1.556 4.422 4.422 0 01-.504-2.204 4.417 4.417 0 01.504-2.084 4.597 4.597 0 011.372-1.588 7.395 7.395 0 011.924-1 6.919 6.919 0 012.248-.372c1.024 0 2.052.14 3.044.42a8.655 8.655 0 012.92 1.452l-1.376 2.252a8.662 8.662 0 00-2.252-1.124 8.128 8.128 0 00-2.336-.376 4.24 4.24 0 00-2.088.548 1.875 1.875 0 00-1 1.748c-.02.756.38 1.46 1.048 1.828.864.532 1.784.944 2.748 1.26l2.044.836a8.31 8.31 0 011.876 1.168 5.27 5.27 0 011.376 1.664 5.15 5.15 0 01.54 2.416c.012.756-.164 1.5-.504 2.172M224.552 128.368h2.96V109.86h-2.96zM239.518 128.453h-.832a6.299 6.299 0 01-3.956-1.124 4.579 4.579 0 01-1.46-3.884v-10.836h-2.716v-2.748h2.716v-5.548h3.124v5.508h3.496v2.748h-3.496v10.8c0 1.5.848 2.248 2.54 2.248h1.004v2.752zM250.026 132.539a8.67 8.67 0 01-1.832 2.96 4.13 4.13 0 01-3.296 1.244 8.54 8.54 0 01-1.5 0 6.79 6.79 0 01-1.332-.368v-2.796a4.16 4.16 0 002.08.54c.476.012.952-.096 1.38-.284.372-.18.7-.428.956-.756.264-.336.492-.696.672-1.08l.54-1.304.872-2.148-7.044-18.564h3.212l5.588 14.636 5.332-14.636h3.084z" mask="url(#a)" transform="translate(0 -.4)"/></g><g><path d="M368 130.407h255.77V2.077H368z" fill="#fff"/><path d="M371.546 126.914h122.538V5.57H371.546z" fill="#d71920"/><path d="M497.672 126.914H620.21V5.57H497.672z" fill="#0090cb"/><g fill="#fff"><path d="M438.686 33.761c-.491.49-1.246 1.758-1.246 3.543v11.007c0 .9-.321 1.77-.825 2.269-.313.264-2.153 1.893-2.254 1.978h1.07c.288-.3 3.587-3.17 3.964-3.566.42-.509 1.507-1.785 1.507-3.786l.008-10.578c0-1.584.699-2.463 1.123-2.886.392-.437 1.647-1.5 1.95-1.788l-1.058-.008c-.275.27-3.863 3.483-4.239 3.815M430.513 73.8l4.05 3.5h2.7c2.743 0 5.276-1.15 6.92-2.802 1.66-1.635 2.296-3.846 2.296-5.92v-5.714c0-1.897-1.217-3.034-1.559-3.362-.197-.2-1.347-1.272-1.347-1.272v4.382s1.276 1.316 1.542 1.573c1.188 1.257 1.171 3.558-2.612 7.22-.682.625-2.57 2.395-5.196 2.395z"/><path d="M441.766 50.338c-.46.476-.854 1.625-.854 2.647v2.147h2.178c.881 0 1.662-.621 2.262-1.176.021-.027 0-2.153 0-2.153s.565.646 1.085 1.176c.722-.681 2.65-2.668 4.05-2.668 2.822 0 2.172 3.501 1.017 4.626-.37.37-2.033 1.88-2.547 2.366-1.33 1.245-3.611.659-3.611-2.578 0 0-2.472 2.29-2.825 2.593-.348.32-1.61 1.646-1.61 1.646v5.703c0 2.737-.882 3.7-1.665 4.466-.42.357-3.379 3.002-3.88 3.48h-1.074s1.9-1.647 2.306-2.038c.392-.42.841-1.28.841-2.72 0-.378-.038-8.964-.038-8.964h-14.155c-4.887 0-5.947-5.436-5.976-6.88-.01-.42 0-4.738 0-5.417 0-.886-.573-2.388-1.492-2.85h1.387c.161.07 1.047.425 1.047 3.739 0 0-.065 3.86-.065 4.064 0 1.677 1.34 3.601 3.298 3.601l15.986-.016c.008-.407.497-2.037 1.221-2.893.464-.484 3.905-3.588 4.268-3.896l1.037-.01c-.139.14-1.788 1.617-2.191 2.005m5.187 3.198s1.163 1.322 1.607 1.662c1.53 1.197 2.216-.176 1.222-1.718-.227-.374-1.182-.993-2.829.056"/><path d="M429.855 63.822c0 .767-2.489 2.793-2.619 2.924-.176-.802-.789-1.74-2.663-3.545l2.71-2.695c1.802 1.822 2.572 2.188 2.572 3.316M434.52 33.112c.589.538 1.724 1.999 1.025 2.69-.579.612-1.563 1.595-1.563 1.595-.04-.356-.98-1.201-.98-1.201s.008 2.59 0 2.907c-.019 1.167-.439 1.498-.439 1.498s2.128 2.14 2.128 4.89c0 1.337.01 2.572.01 2.827 0 .565-.138.998-.505 1.436-.193.204-2.26 2.217-2.541 2.493-.554.526-1.213.616-1.637.616h-7.491c-1.194 0-2.426-.921-2.426-1.835l.01-2.756c.376.44.796.952 1.707.94.78-.01 1.517-.59 1.743-.794.231-.206 5.71-5.864 5.71-5.864s-2.566-2.356-4.272-3.47c-.814-.549-1.922.141-2.086.864-.497 2.246 0 5.627 0 5.627l-2.056-2.055c-.856-.825-.817-2.703.193-3.684.157-.16 1.66-1.85 3.554-1.85h2.995c2.056 0 4.186 1.948 4.186 1.948s.386-.347.386-.686c0-1.018-.01-3.744-.01-3.744-1.532-1.494-1.776-3.04-1.012-3.761l1.824-1.81s-.02 1.627 1.546 3.179m-9.386 14.95c-.76.763-.873.956-1.578 1.37h8.505c2.24 0 1.806-1.405 1.34-2.12-.79-1.465-3.462-4.168-3.462-4.168l-4.805 4.919"/><path d="M415.483 55.677h-1.393s1.492.808 1.492 2.897v6.695c0 4.35 3.615 8.365 8.032 8.365h3.66c2.243 0 2.969-.513 4.316-1.71.535-.415 1.131-1.118 1.358-1.386.8-.854 1.572-1.542 1.572-3.777v-2.174c0-1.897-1.119-2.7-1.633-3.219-.315-.316-1.28-1.24-1.28-1.24v4.498s.957.956 1.34 1.303c1.923 1.488.368 4.08-1.386 4.08l-8.07.001c-3.114 0-6.984-2.543-6.984-6.94v-3.655c0-3.738-1.024-3.738-1.024-3.738"/><path d="M424.33 63.83c0 .77-2.498 2.797-2.634 2.928-.164-.802-.783-1.739-2.648-3.55l2.705-2.686c1.83 1.82 2.576 2.184 2.576 3.308M420.502 92.631v-7.836c0-3.046-2.5-3.834-4.367-3.834-2.447 0-3.202 2.039-3.513 2.708-.562-1.889-2.484-2.732-4.079-2.732-2.97 0-3.729 2.78-3.729 2.78s-.071-2.683-2.47-2.683l-2.348.01s1.348.54 1.348 2.862l-.009 8.725c0 2.866 1.188 2.89 1.188 2.89h3.892c-.107-.024-1.502-1.039-1.502-2.909v-7.725c.052-.337.631-1.503 2.323-1.503.91 0 1.94.979 1.924 2.047v7.2c0 2.886 1.154 2.89 1.154 2.89h3.905s-1.494-.997-1.494-2.913l-.008-7.726c.15-.428.654-1.481 2.14-1.481 1.154 0 2.117.985 2.092 2.05 0 0-.013 6.55-.013 7.19.021 2.89 1.18 2.876 1.18 2.876 2.018 0 3.892.004 3.892.004s-1.506-.987-1.506-2.89M427.295 92.627c0 1.926 1.492 2.894 1.492 2.894s-1.82-.002-3.878-.002c0 0-1.131.005-1.131-2.863v-8.773c0-2.28-1.347-2.85-1.347-2.85h2.28c.857 0 2.571 0 2.571 3.251v8.33zM439.282 82.1s-.442-1.019-2.035-1.019c-2.46 0-3.024 2.83-3.024 2.83-.19-2.244-.858-2.892-2.526-2.892h-2.298s1.372.546 1.372 2.863l-.006 8.746c0 2.86 1.102 2.888 1.102 2.888h3.88c-.095-.029-1.486-1.049-1.486-2.915v-7.158c.092-.63.399-1.116.988-1.467 1.28-.796 3.011-.603 4.033.598zM457.306 82.653c1.32 0 2.302.561 2.302.561l.01-2.184h-3.252v-3.322s-.84 1.471-2.604 2.86c-1.11.918-3.425 2.035-3.425 2.035l2.466.044-.006 10.097c0 2.772 1.194 2.772 1.194 2.772 2.132 0 3.842.002 3.842.002s-1.484-.962-1.484-2.795l.017-10.07zM469.098 87.018c-2.176 2.278-3.897 1.887-5.22 3.545 0 0 .207 2.259 1.9 3.026.59.261 2.997 1.053 4.548-1.654l-.009 2.578s-.988 1.02-4.178 1.02c-3.766 0-6.391-2.919-6.391-6.965 0-3.931 2.134-7.594 6.125-7.609 3.955-.023 6.087 3.109 3.225 6.06m-2.386-.907c.632-1.19 1.148-4.183-1.051-4.02-2.53.199-2.05 6.896-2.05 6.896.837-.906 2.115-1.089 3.101-2.876M425.509 79.833c1.022 0 1.798-.763 1.798-1.733 0-1.006-.776-1.766-1.798-1.766-1.03 0-1.771.76-1.771 1.766 0 .97.74 1.733 1.77 1.733M477.636 91.594c.031 1.037-.89 2.365-2.862 2.365-1.94 0-2.795-2.053-2.795-2.053l-.015 2.622s1.44.993 3.67.993c2.676 0 5.307-1.974 5.227-4.719a4.363 4.363 0 00-.89-2.557c-.91-1.189-2.543-2.035-3.833-2.808-1.759-.978-1.522-3.16 1.062-2.932 1.924.154 2.753 1.995 2.753 1.995v-2.446s-1.494-1.128-3.746-1.128c-2.32 0-4.402 1.513-4.342 3.462.047 1.72.76 2.807 2.187 3.852.56.401 1.236.834 2.01 1.264 1.142.607 1.561 1.392 1.574 2.09M443.806 93.865c-1.232 0-2.077-.634-2.077-2.016 0-3.27 3.013-3.927 3.81-4.914v6.128c-.033.019-.524.802-1.733.802m2.084-9.631c0 1.396-1.215 2.05-1.994 2.383-2.35 1.016-5.304 2.09-5.304 5.42 0 2.262 1.626 3.505 3.942 3.505 1.736 0 2.653-.873 3.06-1.744.266 1.646 1.112 1.719 1.112 1.719 2.014 0 3.863.004 3.863.004s-1.502-.99-1.502-2.882v-8.168c0-1.954-2.2-3.464-4.516-3.464-2.205 0-3.624 1.028-3.624 1.028v2.556s.768-1.995 2.82-1.995c1.654 0 2.143.79 2.143 1.638M531.178 76.148v3.52l4.012-3.52z"/><path d="M527.727 76.101h-6.91c-4.713 0-9.342 3.54-9.342 9.577 0 5.762 4.474 9.862 9.875 9.862 5.896 0 9.84-4.663 9.84-10.026v-5.627h-3.463v5.627c0 3.042-2.23 6.764-6.37 6.764-3.51 0-6.375-2.961-6.38-6.6 0-2.624 1.843-6.352 6.705-6.352h5.831l3.676-3.225v-6.122h-3.462zm18.006-.673c-3.206 0-6.222 1.787-7.183 3.572v-2.897h-3.326v18.97h3.685v-11.75c0-3.357 3.68-5.036 6.004-5.036 4.001 0 4.817 2.62 4.817 5.716v11.07h3.528v-11.47c0-6.59-3.708-8.175-7.525-8.175zm37.235 16.916c-1.697 0-2.186-1.328-2.186-2.69V79.21h5.852v-3.111h-5.852v-6.12h-3.477v20.377c0 1.93.942 5.184 5.168 5.184 1.574 0 3.276-.312 4.365-.8l-.982-3.071c-1.303.515-2.235.675-2.888.675zm23.435-10.491c0-2.772-2.352-6.14-8.935-6.14h-.004s-.004-.003-.01 0c-3.977 0-7.65 2.117-7.65 2.117l1.49 2.516s2.491-1.623 6.147-1.623c5.114 0 5.563 2.317 5.573 3.404v.289s-3.89.332-6.192.548c-3.303.298-5.412 1.295-6.702 2.531-1.287 1.23-1.755 2.706-1.755 3.982v.041c0 3.981 3.874 6.018 8.186 6.018 3.368 0 6.58-1.698 6.58-1.698v1.245h3.272zm-10.045 10.809c-1.307 0-4.385-.513-4.385-3.578 0-2.286 2.774-3.213 5.08-3.41 1.615-.143 5.988-.507 5.988-.507v5c-1.181 1.622-3.934 2.495-6.683 2.495zm-22.446-10.81c0-3.251-2.883-6.14-8.95-6.14-3.858 0-7.646 2.118-7.646 2.118l1.484 2.516s2.494-1.623 6.146-1.623c5.12 0 5.57 2.317 5.577 3.404v.289s-3.89.34-6.19.548c-3.697.327-8.46 2.006-8.46 6.554 0 3.965 3.875 6.018 8.183 6.018 3.372 0 6.585-1.698 6.585-1.698v1.245h3.27zm-10.045 10.81c-1.307 0-4.386-.513-4.386-3.578 0-2.286 2.777-3.213 5.08-3.41 1.616-.143 5.985-.507 5.985-.507v5c-1.177 1.622-3.93 2.495-6.679 2.495zM396.052 93.558l-4.323-.004c-1.364 0-1.265-1.082-1.374-2.053v-6.18s.938-.022 1.985-.022c1.204 0 2.711-.169 4.159.681 0 0-1.05-2.52-4.17-2.52h-1.974v-1.962s0-1.722-.418-2.202l2.833.012c2.478.004 4.394-.048 6.396 1.22 0 0-.388-3.213-5.196-3.213h-9.205s1.553 1.268 1.553 4.169l-.017 11.21c0 2.797 1.13 2.84 1.13 2.84h9.192c2.085 0 2.82-1.406 2.82-2.248l.02-1.093s-.662 1.365-3.411 1.365"/></g><path d="M408.9 147.057h-3.218v9.122h-2.55v-9.122h-3.201v-2.049h8.968zM421.405 156.178h-2.55v-4.546h-4.672v4.546h-2.541v-11.17h2.54v4.456h4.674v-4.457h2.55zM431.975 156.178h-6.765v-11.17h6.505v2.048h-3.964v2.485h3.689v2.04h-3.689v2.559h4.224zM447.443 156.178h-6.765v-11.17h6.505v2.048h-3.964v2.485h3.69v2.04h-3.69v2.559h4.224zM463.333 156.178h-2.51v-6.685c0-.719.031-1.516.094-2.39h-.063c-.13.689-.25 1.179-.354 1.482l-2.644 7.593h-2.075l-2.69-7.516c-.074-.203-.194-.723-.355-1.558h-.072c.07 1.099.103 2.067.103 2.896v6.178h-2.289v-11.17h3.72l2.306 6.624c.183.525.317 1.06.401 1.593h.046c.143-.617.292-1.155.45-1.61l2.306-6.608h3.626zM470.607 145.007v1.947h-.944v7.275h.944v1.95h-4.43v-1.95h.945v-7.275h-.945v-1.947zM482.916 156.178h-2.92l-1.753-2.874a9.948 9.948 0 00-.378-.582 3.143 3.143 0 00-.367-.442 1.394 1.394 0 00-.384-.28.966.966 0 00-.437-.098h-.684v4.276h-2.54v-11.17h4.026c2.738 0 4.106 1.011 4.106 3.04 0 .386-.058.745-.18 1.076-.12.332-.292.627-.512.893-.22.264-.487.493-.798.684a4.094 4.094 0 01-1.042.453v.03c.167.053.331.136.489.254.157.117.308.254.455.408.147.155.287.324.42.505.134.176.256.353.367.525zm-6.923-9.286V150h1.102c.545 0 .982-.155 1.313-.465.336-.318.504-.709.504-1.178 0-.975-.592-1.465-1.771-1.465zM495.113 156.178h-2.77l-.801-2.483h-4.012l-.795 2.483h-2.753l4.106-11.17h3.013zm-4.152-4.418l-1.213-3.754a4.958 4.958 0 01-.189-1.006h-.063a4.2 4.2 0 01-.195.977l-1.228 3.783zM504.545 147.057h-3.22v9.122h-2.549v-9.122h-3.2v-2.049h8.969zM514.05 156.178h-6.763v-11.17h6.503v2.048h-3.962v2.485h3.689v2.04h-3.689v2.559h4.222z" fill="#a0a0a0"/><path d="M1.683 11.845V9.352c.458.376.95.66 1.488.854.53.189 1.074.282 1.618.282.32 0 .602-.029.839-.085.24-.058.436-.14.598-.239.16-.1.277-.22.357-.357a.972.972 0 00-.07-1.033c-.127-.172-.3-.33-.514-.474a5.227 5.227 0 00-.778-.42 24.183 24.183 0 00-.965-.413c-.882-.364-1.538-.808-1.97-1.332-.433-.526-.651-1.161-.651-1.901 0-.582.117-1.083.352-1.5.24-.42.56-.765.966-1.033a4.39 4.39 0 011.41-.597 7.385 7.385 0 011.701-.19c.588 0 1.106.037 1.56.107.457.067.875.177 1.254.32v2.33a3.868 3.868 0 00-.614-.343A5.114 5.114 0 006.87 2.94a4.739 4.739 0 00-.663-.05c-.292 0-.55.027-.789.084-.235.054-.436.13-.598.23a1.106 1.106 0 00-.378.356.809.809 0 00-.132.46c0 .188.049.356.15.506.1.145.243.284.425.42.183.13.405.261.667.386.263.13.56.26.89.397.45.185.856.382 1.217.594.355.21.668.449.924.713.256.264.453.57.59.906.136.34.205.738.205 1.188 0 .624-.122 1.147-.361 1.57a2.873 2.873 0 01-.972 1.03 4.327 4.327 0 01-1.427.567c-.543.11-1.114.17-1.718.17a10.03 10.03 0 01-1.767-.155 5.338 5.338 0 01-1.45-.468" fill="#a0a0a0" mask="url(#b)" transform="translate(514.885 143.907)"/><path d="M10.599 11.525c-1.1.627-2.47.943-4.109.943-1.81 0-3.242-.499-4.29-1.494C1.153 9.983.633 8.61.633 6.866c0-1.756.57-3.186 1.714-4.295C3.49 1.467 5.011.915 6.91.915c1.196 0 2.25.164 3.162.49v2.36c-.87-.5-1.934-.745-3.193-.745-1.056 0-1.912.336-2.577 1.014-.663.677-.995 1.583-.995 2.716 0 1.147.296 2.036.892 2.661.594.63 1.4.946 2.413.946.609 0 1.09-.087 1.446-.26V7.919H5.8V5.908H10.6z" fill="#a0a0a0" mask="url(#c)" transform="translate(531.672 143.907)"/><path d="M555.155 156.178h-2.919l-1.756-2.874a9.948 9.948 0 00-.378-.582 3.138 3.138 0 00-.365-.442 1.394 1.394 0 00-.384-.28.98.98 0 00-.436-.098h-.684v4.276h-2.541v-11.17h4.026c2.737 0 4.107 1.011 4.107 3.04a3.002 3.002 0 01-.692 1.97 3.22 3.22 0 01-.8.683 4.08 4.08 0 01-1.04.453v.03c.165.053.329.136.488.254.155.117.307.254.455.408.145.155.288.324.42.505.134.176.256.353.365.525zm-6.922-9.286V150h1.1c.545 0 .986-.155 1.313-.465.336-.318.506-.709.506-1.178 0-.975-.592-1.465-1.771-1.465z" fill="#a0a0a0"/><path d="M7.29 12.468c-1.618 0-2.934-.52-3.954-1.562-1.015-1.041-1.523-2.398-1.523-4.071 0-1.766.514-3.194 1.548-4.283C4.396 1.462 5.764.912 7.47.912c1.607 0 2.91.522 3.903 1.568.997 1.043 1.49 2.418 1.49 4.128 0 1.754-.514 3.171-1.545 4.248-1.03 1.072-2.373 1.612-4.029 1.612m.108-9.39c-.892 0-1.597.332-2.124.995-.525.661-.785 1.538-.785 2.631 0 1.105.26 1.98.785 2.622.527.647 1.21.969 2.06.969.876 0 1.572-.312 2.086-.94.517-.627.773-1.496.773-2.605 0-1.16-.25-2.06-.747-2.706-.5-.642-1.18-.966-2.048-.966" fill="#a0a0a0" mask="url(#d)" transform="translate(554.754 143.907)"/><path d="M579.912 151.34c0 3.356-1.578 5.033-4.734 5.033-3.064 0-4.596-1.637-4.596-4.914v-6.452h2.548v6.483c0 1.806.715 2.71 2.14 2.71 1.402 0 2.103-.871 2.103-2.616v-6.577h2.539zM586.132 152.33v3.85h-2.541v-11.172h3.982c2.844 0 4.264 1.187 4.264 3.56 0 1.122-.407 2.03-1.223 2.724-.816.694-1.905 1.039-3.27 1.039zm0-5.391v3.484h.999c1.353 0 2.03-.588 2.03-1.764 0-1.145-.677-1.72-2.03-1.72z" fill="#a0a0a0"/></g></g></svg>